<?xml version="1.0" encoding="UTF-8"?>
<svg version="1.1" viewBox="0 0 2048 2048" width="192" height="192" xmlns="http://www.w3.org/2000/svg">
<path transform="translate(0)" d="m0 0h2048v2048h-2048z" fill="#FCFCFC"/>
<path transform="translate(1228,600)" d="m0 0h275l12 2 10 7 7 6 9 12 5 11-1 10-7 30-17 77-19 87-10 44-2 7-8 5-28 15-17 9-19 9-4 3 2 4 18 11 16 10 20 12 3 3-1 8-7 28-19 87-18 85-6 21-4 8-9 10-9 8-11 7-12 6-11 3-8 1h-387l-10-1 1-9 11-44 13-61 22-100 9-42 26-119 12-53 16-73 8-38 2-7v-7l-3-7-10-13-12-15-8-11-11-14-9-11-7-9-8-10v-1z" fill="#054DAB"/>
<path transform="translate(1128,235)" d="m0 0h43l145 11 2 1 56 4 18 2 7 4 2 2 1 4v9l-2 13-3 12-7 12-2 1 2-6 2-3 1-6v-8l-2-5-4-1-4 1-10-2-8 2-16 1-4-1h-21l-2 1h-13l-6-1-13 3-6-2-7 3-10 2h-11l-10 1-5-1-3 3-22 1-5-3-9 2-20 1-18 4-29 3-20 4-13 2-4 1h-16l-6 4-4 3h-12l-8 5-11 2-4 1-8 4-10 4-12 3-8 5-16 7-11 4-20 7-9 1-6 3-5 4-10 2-6 3-7 1-7 2-5-1-9-6-3-1 1 99 1 32 36-7 35-4 27-2h75l34 3 34 7 34 9 29 9 29 10 49 19 34 14-3 1-21-8-16-3-9-2v-2l-3 1-4-2-9-2-23-7-24-6v-2h-8l-16-4-7-2-9-1-4-2h-12l-9-2-9 1-7-2h-10l-8 1-9 1-10-1-8 2-8-1-2 2-20 2-6 2h-6l-5-1-9 5-11 4-5-1v2l-11 5-7 2h-9l-8 6-5 2-7 2-23 4h-23v-3h13l1-1h-11l-4-5h-2l-1 2-4-7-3-5-1 57-1 1-43 2-74 2-21 1-19 7-3 1-1 3 3 2-6 1-6 21-5 22h-2l-2 11-1 2-7 3-6 9-3 5-11 13-8 10-15 15-8 7-4 5-4 1-2 4-8 9-5 5-7 8-7 10-8 13-9 14-5 8-7 10-3 8-6 9-1 4h-2l-2 9-4 9-7 15-6 15-9 22-4 10-5 11-3 9-3 5-2 11-3 4-3 9-4 7 1 8-4 11-1 7-4 7-1 6 1 7-3 8-2 3-1 15-1 2h-2v2h-2v5l2 1 1 9-1 3-3 2-1 7 4 5v5l-4 4 1 6 1 4-3 5 1 7 2 6-3 6v5l5 6-3 7 4 10-1 5-2 6 4 8-1 7 4 10v9l-1 8 1 3h2l-1 4-1 6 2 4v9l3 8 2 15 2 13 3 9 1 8-1 5 1 2 2 14 7 15-1 2-4-2-9-17-10-19-8-17-11-27-9-27-9-33-7-35-3-25-1-9-1-25v-41l1-23 4-44 4-28 6-29 7-26 9-29 10-28 9-21 12-26 12-22 13-22 12-17 14-19 10-13 9-11 14-15 25-25 8-7 15-14 11-9 12-10 13-10 7-6h-25l-34 1h-9v2h-2l-1 5-9 6-3 4-1 10-6 15-4 6-5 4-11 14-6 8-5 9-6 8-9 14-7 9-7 11-9 11-1 2h-2l-2 4-9 15-5 8-11 14-7 8-5 4-9 5h-10l-4 1v2l11 3 13 4 11 1v-2l4-1 1 4-4 6-4 2-2 9-7 3-8 2-12 2-5 5-3 9-2 9-1 9-7 15-4 4v6l-7 16-5 8-2 10-3 5v6l-5 14-1 7-3 4v10l-4 8 1 7-3 1v11l-5 8v9l-2 8-1 7-3 13v10l-3 17-4 26-2 18-2 4 1 15-2 5v7l-2 14-2 17-1 6 1 2v6l-2 5 1 13-1 7 1 2v12l-4 10v11l-2 4 1 5 1 7v19l1 4-2 13 1 4v8l-4 8 1 8-4 5 2 4 16 6 5 8 7 21 6 11 4 8-1 4-6-1-17-17-6-9-3-5-5-5-5-3-5-1 1 6 5 13 7 12 7 9 10 11 11 14 7 10 4 12 6 11 13 19 18 22 5 6 9-1 7-3 10-2 1-4 6 2 13 7 4 1v2h4v2h4v2h4v2l5 1 15 6 20 3 8 4 2 3-2 3-13 4-9 5-16 7h-3v-3l-9-2-14-8-8-4v-2l-12-2-12-9-5-2 2 5 7 8-1 2-7-7-7-8-8-7-5-5v-2h-3v-2l-5-2 1 9 5 11 2 14 7 19 6 13 11 24 4 8 2 5 2 3v14h2l1 5h2l2 3 1 7 3 3-1 3-4-5-9-11-9-13-24-36-12-19-17-29-10-18-22-45-10-23-10-26-6-19-4-13-5-12-6-10-10-26-6-21-7-24-6-15-3-6v-2h-2l-3-7-10-16-12-18-10-16-8-20-8-18-11-24-11-23-5-9 1-2 3 2 5 11 9 19 11 25 5 10 9 21 8 14 13 20 8 14 3 5-1-7 3 3 3 5 2 9h7l2-7v-18l-2-6-6-4-1-3v-14l-2-45v-50l3-52 4-43 3-26v-7l-1-4 3-2 11-45 12-54 8-33 5-18 5-15 2-10-5-1-6-3 3-2 1-3 11 1 10-23 1-3h2l2-11 1-3h-2l-7-11-2-4 4 2 8 10 3-1 9-18h2l2-6 12-26 5-9 5-10 1-3v-14l-3-20-2-8v-5l2 4 4 9 2 2 2 15 2 9 15-26 14-22 16-24 3-1v-2l-11-1v-2l-4-1-2-4 13 3 5 2 4-1 6-9 10-12h2l1-4 7-8 5-4 5-8 6-5 3-5 9-9 8-7 43-43 8-7 13-12 11-9 13-11 5-4 4-5 5-4 7-3 16-14 7-4 5-2 2-4 17-11 6-4 4-1 5-5 19-11 17-10 32-16 21-11 36-16 27-11 8-3 2-16 3-30 1-1h38v1l-13 1h-24l-1 17-2 27 35-12 46-14 44-13 1-2h-14v-1l33-1 26-2 69-3z" fill="#DBE9F1"/>
<path transform="translate(895,601)" d="m0 0h78l14 1 9 12 8 11 12 16 14 17 12 16 13 18 4 8v9l-5 21-13 51-6 17-2 1-8-4-23-15-21-12-15-8-4-3 1-8 5-13v-8l-1-1-111-1-5 29-12 53-6 23-4 17-8 1h-106l-2 1 1 6 8 8 8 7 11 12 9 11 12 13 7 8 15 16 11 12 9 9 2 3-1 11-7 30-13 60-10 42-4 15-1 7 48 1h64l1-1 4-23 9-38 8-37 3-11v-12l-8-2h-6l-5 2-10-8-13-13-7-8-15-16-13-14-7-8-12-12-7-8-10-10-7-6v-2l-4-2-7-7-7-8v-2l4-1h156l49 1 12 2 9 5 11 8 4 5 1 2v11l-9 41-10 46-12 56-10 45-10 47-13 56-11 43-1 2-3 1-45 1h-219l-41-1-11-2-10-5-12-11-7-11-2-4v-14l6-28 13-55 19-86 14-64 16-74 12-55 11-50 16-71 10-46 7-31 7-28 3-7 26-1z" fill="#FED96A"/>
<path transform="translate(1128,235)" d="m0 0h43l145 11 2 1 56 4 18 2 7 4 2 2 1 4v9l-2 13-3 12-7 12-2 1 2-6 2-3 1-6v-8l-2-5-4-1-4 1-10-2-8 2-16 1-4-1h-21l-2 1h-13l-6-1-13 3-6-2-7 3-10 2h-11l-10 1-5-1-3 3-22 1-5-3-9 2-20 1-18 4-29 3-20 4-13 2-4 1h-16l-6 4-4 3h-12l-8 5-11 2-4 1-8 4-10 4-12 3-8 5-16 7-11 4-20 7-9 1-6 3-5 4-10 2-6 3-7 1-7 2-5-1-9-6-3-1 1 99 1 30v79l-1 10-2-1-1-90-2-78-3-17-4-2-9 4-5 5-6 2-9 5-5 4-12 5-16 9-5 2h-4l-1 5-8 3-10 8-8 5-9 7-5 3-4 4-9 5-9 10-6 4-4 5-11 8-3 3h-2l-2 4-12 10-8 7-13 11-4 3h-2l-2 5-5 3-7 1 1 7-4 4-1 3-8-1 1 7-5 6-8 1v3l17 2 44 1 4 2-6 3h-196l-2 5-6-1-8 1 2-5-11-1v-2l-4-1-2-4 13 3 5 2 4-1 6-9 10-12h2l1-4 7-8 5-4 5-8 6-5 3-5 9-9 8-7 43-43 8-7 13-12 11-9 13-11 5-4 4-5 5-4 7-3 16-14 7-4 5-2 2-4 17-11 6-4 4-1 5-5 19-11 17-10 32-16 21-11 36-16 27-11 8-3 2-16 3-30 1-1h38v1l-13 1h-24l-1 17-2 27 35-12 46-14 44-13 1-2h-14v-1l33-1 26-2 69-3z" fill="#DBE9F1"/>
<path transform="translate(384,754)" d="m0 0 1 3 8 1 32 12 26 11 16 6h10l13 4 11 1v-2l4-1 1 4-4 6-4 2-2 9-7 3-8 2-12 2-5 5-3 9-2 9-1 9-7 15-4 4v6l-7 16-5 8-2 10-3 5v6l-5 14-1 7-3 4v10l-4 8 1 7-3 1v11l-5 8v9l-2 8-1 7-3 13v10l-3 17-4 26-2 18-2 4 1 15-2 5v7l-2 14-2 17-1 6 1 2v6l-2 5 1 13-1 7 1 2v12l-4 10v11l-2 4 1 5 1 7v19l1 4-2 13 1 4v8l-4 8 1 8-4 5 2 4 16 6 5 8 7 21 6 11 4 8-1 4-6-1-17-17-6-9-3-5-5-5-5-3-5-1 1 6 5 13 7 12 7 9 10 11 11 14 7 10 4 12 6 11 13 19 18 22 5 6 9-1 7-3 10-2 1-4 6 2 13 7 4 1v2h4v2h4v2h4v2l5 1 15 6 20 3 8 4 2 3-2 3-13 4-9 5-16 7h-3v-3l-9-2-14-8-8-4v-2l-12-2-12-9-5-2 2 5 7 8-1 2-7-7-7-8-8-7-5-5v-2h-3v-2l-5-2 1 9 5 11 2 14 7 19 6 13 11 24 4 8 2 5 2 3v14h2l1 5h2l2 3 1 7 3 3-1 3-4-5-9-11-9-13-24-36-12-19-17-29-10-18-22-45-10-23-10-26-6-19-4-13-5-12-6-10-10-26-6-21-7-24-6-15-3-6v-2h-2l-3-7-10-16-12-18-10-16-8-20-8-18-11-24-11-23-5-9 1-2 3 2 5 11 9 19 11 25 5 10 9 21 8 14 13 20 8 14 3 5-1-7 3 3 3 5 2 9h7l2-7v-18l-2-6-6-4-1-3v-14l-2-45v-50l3-52 4-43 3-26v-7l-1-4 3-2 11-45 12-54 8-33 5-18 5-15 2-10-5-1-6-3 3-2 1-3 11 1 10-23z" fill="#DBE9F1"/>
<path transform="translate(1302,726)" d="m0 0h41l21 1 1 3-4 11-12 54-2 7-7 7-21 12-16 9-24 14-19 11-16 9-19 11-17 9-1 1v6l10 30 15 52 10 39 1 2 6-1 23-11 26-13 8-1 1 5-8 34-13 61-6 25-3 6-2 2h-119l-4-2 1-9 9-37 16-73 10-45 1-3v-8l-7-22-8-29-4-12-2-8 4-6 5-4 15-9 21-13 2-7 4-22 9-41 9-39 3-5z" fill="#FBFCFC"/>
<path transform="translate(1128,235)" d="m0 0h43l145 11 2 1 56 4 18 2 7 4 2 2 1 4v9l-2 13-3 12-7 12-2 1 2-6 2-3 1-6v-8l-2-5-4-1-4 1-10-2-8 2-16 1-4-1h-21l-2 1h-13l-6-1-13 3-6-2-7 3-10 2h-11l-10 1-5-1-3 3-22 1-5-3-9 2-20 1-18 4-29 3-20 4-13 2-4 1h-16l-6 4-4 3h-12l-8 5-11 2-4 1-8 4-10 4-12 3-8 5-16 7-11 4-20 7-9 1-6 3-5 4-10 2-6 3-7 1-7 2-5-1-9-6-3-1 1 99 1 30v79l-1 10-2-1-2-171v-124l2-16 3-30 1-1h38v1l-13 1h-24l-1 17-2 27 35-12 46-14 44-13 1-2h-14v-1l33-1 26-2 69-3z" fill="#DBE9F1"/>
<path transform="translate(874,392)" d="m0 0 4 2 2 4 2 14 1 37v48l-21 5-35 12-37 15-24 11-25 13-28 17-8 4-7 2h-46l-15-2-2-1v-3l9-3 3-4-1-5 1-2 8 1 1-4 3-3v-7l9-3 7-7 11-9 10-9 11-9 6-5 5-5 10-8 5-5 8-6 7-8 8-5 4-2 4-5 6-3 10-8 8-5 7-6 7-2 1-4 8-2 8-5 15-8 9-4 3-3 8-4 8-3 4-5z" fill="#FCFCFC"/>
<path transform="translate(1217,1310)" d="m0 0h8l7 2 6 5 7 8 6 8v-8l6-8 5-4h7l7 4 8 16v2l8 1 2-16 3-5 5-2h8l5 4 1 6v54l-4 8-9 3-5-2-1 9h-1l-3-14-10-15-9-8-2-1 2 23v6l-6 3-10-1-5-2v-15l1-25-8 8-7 14-9 10-11 6-4 1h-14l-12-4-1 19-3 40-3 5-9 4-4-1 12-5 2-12 3-35v-18l-6-11-2-2-4 1-11 11-10 7-7 3-12 2h-11l-8-3-2-21-1-25 1-11 6-10 9-5 5-1h15l10 4 5 4 4 6 2 8-1 5-6 4-2 10v2h15l1-1 1-11 8-16 7-8 7-6 9-3z" fill="#0859C4"/>
<path transform="translate(985,481)" d="m0 0h75l34 3 34 7 34 9 29 9 29 10 49 19 34 14-3 1-21-8-16-3-9-2v-2l-3 1-4-2-9-2-23-7-24-6v-2h-8l-16-4-7-2-9-1-4-2h-12l-9-2-9 1-7-2h-10l-8 1-9 1-10-1-8 2-8-1-2 2-20 2-6 2h-6l-5-1-9 5-11 4-5-1v2l-11 5-7 2h-9l-8 6-5 2-7 2-23 4h-23v-3h13l1-1h-11l-4-5h-2l-1 2-4-7-3-5-1 54h-1v-87l36-7 35-4z" fill="#DCEAF2"/>
<path transform="translate(356,1358)" d="m0 0 5 4 5 5 10 11 11 14 9 11 13 18 10 14 13 18 8 11 12 16 11 12v3l-11-11v-2h-3v-2l-5-2 1 9 5 11 2 14 7 19 6 13 11 24 4 8 2 5 2 3v14h2l1 5h2l2 3 1 7 3 3-1 3-4-5-9-11-9-13-24-36-12-19-17-29-10-18-22-45-10-23-10-26-6-19-4-13z" fill="#DCEAF2"/>
<path transform="translate(998,1312)" d="m0 0h21l6 4 3 4-1 18 5 6 2 5v12l-8 15-7 7-11 5-11 1-10-3-6-4-7-7-5-11v-17l2-9 6-10 4-5 13-9z" fill="#085AC4"/>
<path transform="translate(836,1312)" d="m0 0h12l9 3 8 7 6 9 2 5 1 11-2 11-6 9-6 7-9 6-8 3-4 1h-9l-10-5-4-3v-2h-2l-4-7-2-10v-21l7-11 7-7 10-5z" fill="#FEE248"/>
<path transform="translate(714,1313)" d="m0 0h8l9 2 5 4-1 14-1 7 5 10v10l-4 12-6 8-8 5-7 2h-14l-10-5-7-7-4-9-1-5v-21l3-7 5-7 10-7 12-5z" fill="#FEE247"/>
<path transform="translate(1072,1311)" d="m0 0h8l5 3 3 6 8 27 5 19 5 15-1 4h-14l-10-4-6-2-5 1-10 8-2 1h-8l-6-3 1-13 5-21 6-24 5-10 6-5z" fill="#0759C4"/>
<path transform="translate(926,238)" d="m0 0h30l37 1 9 1-1 2 11 1-1 3-74 22-36 12-13 4h-2v-16l3-28z" fill="#F6F8FA"/>
<path transform="translate(449,570)" d="m0 0h16l2 1 2 6 4 1v2l11 1v2l-4 4-8 12-13 20-12 20-11 18h-1l-2-10-2-15-4-5-2-6v-4h-2l-5-19-3-22 18-4z" fill="#FCFCFC"/>
<path transform="translate(987,1127)" d="m0 0h1l-1 12-2 7v14l-2 5-1 6-3 3-5 25 1 9-2 14v8l5 5 5 2 14 1h20l30 1h22l30 1h25l49 1h38l51 1 45 1 16-1 9-1 12-1h35l-2 2-11 3-8 1h-387l-10-1 1-9 11-44 13-61z" fill="#085AC5"/>
<path transform="translate(779,1314)" d="m0 0h12l7 2 1 3-5 15-15-5h-6l-4 4 3 12 11-1 3-1h8l1 2v10l-11 2-4 1h-7l-3-2v3h-2l1 7 2 6 21-1 7-2 1 4-3 9-5 3-13 2h-20l-7-3-1-1v-38l1-23 5-4 10-3z" fill="#FEE248"/>
<path transform="translate(1429,268)" d="m0 0 9 2 25 9 42 18 34 16 23 11 26 13 23 13 18 10 26 16 16 11 17 12 10 8h-3l-18-13-11-7-14-9-17-8-19-10-28-13-30-13-9-3-4-2-8-2-6-3-9-2-3-3-9-2-17-9-9-5-1-3-5-2-14-8-26-14-8-4z" fill="#DCEAF2"/>
<path transform="translate(492,1477)" d="m0 0 16 6 4 1v2h4v2h4v2h4v2l5 1 15 6 20 3 8 4 2 3-2 3-13 4-6 4-8 2h-17l-1-2-1 2-17-10-10-7-1-3-12-9-1-1v-5l5-8h2z" fill="#F4F7FA"/>
<path transform="translate(1133,1313)" d="m0 0h15l10 4 5 4 4 6 2 8-1 5-6 4-2 10v5l-2 1-3-4-6-1v-3l-3-1v5h-10l-1-2 2-7-6-1-3 1 2-5h8l8-3 2-3-2-5-5-2-6 1-4 4-2 8-5 3-1-3v-6l-4-2v-7l-4 4v-6l5-7 8-4z" fill="#0759C4"/>
<path transform="translate(374,782)" d="m0 0 2 1 1 8-5 5-3 7-5 32-6 33-16 63-5 18-5 14-5 5v-2l-4-1 3-2 11-45 12-54 8-33 5-18 5-15 1-10 3-1 2-4z" fill="#ADC3DB"/>
<path transform="translate(312,1242)" d="m0 0 1 2h2l9 19 5 15 7 25 7 21 5 2h6l2 1 1 9 4 11 2 10 5 9 2 1v2h2l2 5h2v3h2l1 2 6 3 7 9 9 15 12 17 8 12 12 16 13 16 9 11 10 12 9 12 6 7-1 2-7-7-7-8-9-10-10-12-8-11-12-17-14-19-13-19-11-13-11-14-9-10-5-7-5-3-12-21-10-26-6-21-7-24-6-15-3-6v-2h-2z" fill="#AEC4DC"/>
<path transform="translate(839,1328)" d="m0 0 7 1 7 5 3 7-1 9-5 10-8 6-3 1h-8l-5-5-2-5v-14l5-8 8-6z" fill="#FCFCFC"/>
<path transform="translate(494,572)" d="m0 0v3l-1 3 35-1h172l-3 3-3 1h-196l-2 5-6-1-8 1 2-5-11-1v-2l-4-1-2-4 13 3 5 2 4-1z" fill="#ACC3DB"/>
<path transform="translate(888,238)" d="m0 0h38v1l-13 1h-24l-1 17-2 23-1 6v131l2 75v79l-1 10-2-1-2-171v-124l2-16 3-30z" fill="#AEC4DC"/>
<path transform="translate(543,1569)" d="m0 0 4 2 19 14 44 33 14 12 10 10 7 8 7 7 7 8 12 13 9 10 13 16 9 14 8 13 12 14 7 7 11 9 10 9 11 9 9 9 5 4v2h2l7 8 10 14 12 19 8 11 11 13 5 3h2l8-14 7-15 1 4-15 30-4-2-13-12-12-16-10-15-9-14-12-14-12-11-14-12-15-13-21-21-10-15-7-12-10-13-10-11-7-8-11-12-7-8-11-12-11-11-8-7-10-9-20-15-18-13-13-10-10-8z" fill="#0652B6"/>
<path transform="translate(424,617)" d="m0 0 2 4 4 9 2 2 2 15v12l4-2 1 4-4 16-9 22-6 10h-2l-2 4-7 7-6 1 1-5 14-30 5-9 5-10 1-3v-14l-3-20-2-8z" fill="#AEC4DC"/>
<path transform="translate(1217,878)" d="m0 0h13l3 3v5l-10 14-2 6v10l4 15 5 17v5h-3l-1 2-13-43-7-21v-6l5-4z" fill="#0759C4"/>
<path transform="translate(489,1474)" d="m0 0 6 2 9 5-3 1-8-4-5 5-2 4v5l13 10 2 2v2l25 15v-2l3 1 4 1h12l5-1-4 3-12 5h-3v-3l-9-2-14-8-8-4v-2l-12-2-12-9-5-2-1 2-5-6v-6h2v-2l11-4 10-2z" fill="#DBE9F1"/>
<path transform="translate(712,1330)" d="m0 0h9l3 4v5l-5 4-7 2-4 15h6v-2h-2l1-8 2-3h3l-2 11v7l-2 2-6-1 1 1 1 2h-7l-5-4-3-7v-7l5-12 8-8z" fill="#FDFDFD"/>
<path transform="translate(1256,1343)" d="m0 0 2 1 1 6 9-2 2 7 2 17 1 1 1 13-6 3-10-1-3-1-1-3 1-24z" fill="#054DAC"/>
<path transform="translate(1210,1332)" d="m0 0h7l7 3 2 4v14l-4 4-10 5h-6l-5-3-2-10 3-9 4-6z" fill="#F6F8FA"/>
<path transform="translate(990,1326)" d="m0 0h19v2l4 2v2l-10-1-7 7-6 9-2 5-2 7-5 10-4-1-2-9-1-9 1-11h2l1-5 8-6z" fill="#054DAC"/>
<path transform="translate(649,416)" d="m0 0 2 1-6 7h-2v2h-3v2l-3 3h-2l-1 3-11 9-7 7h-2v2h-2v2l-8 7-4 5-8 7-6 5-10 10h-2v2h-2v2l-5 5-3 1v2l-4 3h-2l-2 4-3 1-1 3-8 5-1 2-3-1 54-54 8-7 13-12 11-9 13-11zm-110 101m-1 1 2 2h-3zm-2 2m-1 1 3 2-7 8h-2l2-4 3-5z" fill="#AEC4DC"/>
<path transform="translate(1013,601)" d="m0 0h70v1l-50 1v2h2v2h2l3 10 1 9 5 9 6 9 5 6-1 5-5-5-13-17-11-13-9-12z" fill="#085AC5"/>
<path transform="translate(360,1320)" d="m0 0 8 1 20 6 4 3v3l-17-4 4 7 8 10 5 5 6 1v2l4 2 9 15 1 5-2 2-8-6-10-10-18-27-6-7v-2l-4-2z" fill="#AEC4DC"/>
<path transform="translate(382,1324)" d="m0 0 10 3 5 5 4 11 6 16 8 14 1 5-1 2-6-1-1-2 3-1-2-7-9-14-2-1v-2h-6l-5-4-8-11-4-5v-3l8 1 9 3-2-4-8-3z" fill="#DCEAF2"/>
<path transform="translate(1235,972)" d="m0 0 2 1 3 11 5 15 1 2 9-1 7-3h8v2h2v2l2 1-21 10-6 3-5-1-3-10-6-23z" fill="#085AC5"/>
<path transform="translate(1e3 1330)" d="m0 0 7 1 8 7-1 6-7-1-5-2-1-6-2 1v9l-1 6v9l2 4-4 4-5-1-4-5-2-9 2-8 8-10z" fill="#DCE8F1"/>
<path transform="translate(1288,1354)" d="m0 0 6 3 3 5 3 9 2 5v3l9 2 2 1-1 3-9 3-5-2-1 9h-1l-3-14-10-15-3-3 1-3h3v-4z" fill="#054DAC"/>
<path transform="translate(735,1319)" d="m0 0 1 4-1 6-1 13-7-1-2 2-2 7v11l-5 8-4 2h-10l-5-3v-3l4 3 7 1-4-2 4-2 4 1 1-3 1-11 2-5-3 1-3 10h2v2h-6l2-10 2-6 8-3 3-2-1-7-1-1h-13l2-2h14l7 4v-9l4-2z" fill="#FED969"/>
<path transform="translate(1544,901)" d="m0 0 6 1 36 2 19 3 8 3 6 7 6 12 6 19v2l27 5 21 6 12 5 10 7 9 9 6 9 3 9v11l-5 19-1-4 3-12 1-12-4-10-6-9-9-9-13-8-21-7-35-7-6-21-7-14-4-5-11-3-16-2-32-2-9-3z" fill="#0655BB"/>
<path transform="translate(770,1341)" d="m0 0 2 4 11-1 3-1h8l1 2v10l-11 2-4 1h-7l-3-2v3h-2l1 7 2 6 21-1 7-2v2l-6 2-13 2h-9l-4-6-1-5 1-16 4-2z" fill="#FED96A"/>
<path transform="translate(1277,245)" d="m0 0h11l86 6 18 2 7 4 2 2 1 4v9l-2 13-3 12-7 12-2 1 2-6 4-8 2-7 1-14v-15l-4-3-21-3-63-4-2-1-23-2-7-1z" fill="#AEC4DC"/>
<path transform="translate(379,1388)" d="m0 0 4 1 5 4 5 7 4 7 14 19 2 6-4 1-6-7-8-7-8-8v-2h-2l-5-10-2-9z" fill="#FBFCFC"/>
<path transform="translate(269,1102)" d="m0 0 8 1 19 5 14 5v7h-13l-9-2-15-6-20-5h-7l-4-4 13 1 21 5 7 1 4-2-18-5z" fill="#DCEAF2"/>
<path transform="translate(1648,489)" d="m0 0 4 2 5 10 7 35 7 12 13 17 11 17 11 18 5 9-2 9-8 15-11 15-6 9-1-2 12-18 9-14 4-8-1-7-6-11-13-21-14-19-11-15-4-12-5-29-3-9-3-1z" fill="#0655BB"/>
<path transform="translate(543,1569)" d="m0 0 4 2 19 14 44 33 14 12 10 10 7 8 7 7 7 8 12 13 9 10 13 16 3 5h-3l-9-12-10-11-7-8-11-12-7-8-11-12-11-11-8-7-10-9-20-15-18-13-13-10-10-8z" fill="#0759C3"/>
<path transform="translate(1270,1315)" d="m0 0 6 2 9 19 3 4 1 4-3 1-1 5-5 1-6-7-3-11-2-5 2-4-2-5z" fill="#054DAB"/>
<path transform="translate(884,440)" d="m0 0h1l2 52v79l-1 10-2-1z" fill="#085AC5"/>
<path transform="translate(1126,236)" d="m0 0h36v1l-23 2-19 1-23 1-22 2h-25l-5-1 1-2 32-2z" fill="#AEC4DC"/>
<path transform="translate(234,1093)" d="m0 0 4 2 5 11 9 19 11 25 5 10 9 21 8 14 13 20 8 14 6 11-1 2-12-19-12-18-10-16-8-20-8-18-11-24-11-23-5-9z" fill="#085AC5"/>
<path transform="translate(1151,1340)" d="m0 0 6 1 2 2 1 16-2 1-3-4-6-1v-3l-3-1v5h-10l-1-2 2-7-6-1-3 1 2-5h16l1 2h2z" fill="#054DAC"/>
<path transform="translate(1129,1320)" d="m0 0h5l-1 5h8l7 3 9 4-1 4-2 2-8-5v-2l-5-2-6 1-4 4-2 8-5 3-1-3v-6l-4-2 1-8 6-5z" fill="#054DAC"/>
<path transform="translate(388,738)" d="m0 0 4 2-2 12 27 11 39 18 15 6-4 1-55-22-22-8-5-1 2-10z" fill="#AEC4DC"/>
<path transform="translate(1707,1048)" d="m0 0 1 4-9 30-4 12-1 6v10l13 40 2 10 1 48-1 19-3 15-3 6-2-1 5-16 1-5v-34l-2-1 2-1v-16l-1-16-4-16-10-28-1-5v-7l4-16 7-21z" fill="#0759C3"/>
<path transform="translate(1087,1323)" d="m0 0 2 1 6 19 6 23 2 5v4h-6v-2h-2l-3-10v-12l-2-9v-3h-6l-4-4 4-5 2-6z" fill="#054EAD"/>
<path transform="translate(930,1754)" d="m0 0 6 1 8 7 9 10 10 13 9 10 9 6 9 3 5 1h16l13-3 3 1-9 3-6 1h-18l-13-3-8-5-9-8-13-17-11-13-6-4-6 2-13 8-20 12-21 13-2-1 10-7 20-12 21-13z" fill="#0653B7"/>
<path transform="translate(1546,463)" d="m0 0 9 1 45 10 31 6 13 5 1 2-10-3-45-9-38-9-7 1-26 14-36 14-3-1 30-12 17-8z" fill="#0759C4"/>
<path transform="translate(385,793)" d="m0 0 12 1 33 7 8 3v1l-15-1-23-4-6-1 1 9-4 2-7-1z" fill="#A2BCDA"/>
<path transform="translate(1169,1335)" d="m0 0 1 2 9 3-2 15-2 2h-13l-3-3 2-10 5-4 2-1z" fill="#D0E0EC"/>
<path transform="translate(1132,1356)" d="m0 0 16 1 3 3-1 5-8 5-9 4h-3l-3-6v-5z" fill="#D0E0EC"/>
<path transform="translate(1377,328)" d="m0 0 1 3-5 13-7 28-6 30-1 9v11l3 12 11 21 8 15 3 9v11l-3 5-1-2 2-4v-8l-5-14-9-16-8-14-3-9v-22l4-23 6-25 7-24z" fill="#085AC5"/>
<path transform="translate(1043,870)" d="m0 0h1l-1 14 1 2-1 6h-2v9l-2 6-1 10-1 3-2 7-3-1-1 10-3 14v15l-1 3h-3l-2 2 1-8 16-74z" fill="#085AC5"/>
<path transform="translate(1326,1442)" d="m0 0 2 2 1 5 12 2 32 6 44 11 27 7v1h-8l-16-4-32-9-54-11h-14l-1-2 8-1z" fill="#0756BD"/>
<path transform="translate(323,1209)" d="m0 0 5 1 4 2 6 23v13l-4-1-4-3-2-28-1-3z" fill="#AEC4DC"/>
<path transform="translate(783,1344)" d="m0 0h10l1 2v7l-1 1-11 2-7 1-2-4v-6l1-1 8-1z" fill="#FEE245"/>
<path transform="translate(1138,1328)" d="m0 0 5 1 5 5 1 3-5 4-6 2-8-1-1-5 3-6z" fill="#D0E0EC"/>
<path transform="translate(1182,974)" d="m0 0h2l-1 8-6 27-4-1-1-1v-8l3-15 4-7h2z" fill="#085AC5"/>
<path transform="translate(1544,901)" d="m0 0 6 1 36 2 19 3 8 3 6 7 6 12 6 19-2 4-6-21-7-14-4-5-11-3-16-2-32-2-9-3z" fill="#0756BE"/>
<path transform="translate(993,1346)" d="m0 0h2l1 5 2 1v2h2l2 8 1 2-4 4-5-1-4-5-2-9 1-6 1 2h2z" fill="#D6E5EF"/>
<path transform="translate(489,1474)" d="m0 0 6 2 9 5-3 1-8-4-9 8-11 4-8-1v-3h2v-2l11-4 10-2z" fill="#EBF3F7"/>
<path transform="translate(1185,932)" d="m0 0 2 3 3 9v8l-5 22-2-2v-31l1-8z" fill="#085AC5"/>
<path transform="translate(888,238)" d="m0 0h38v1l-13 1h-24l-1 17-2 23-1 6-1 16h-1v-21l4-42z" fill="#085AC5"/>
<path transform="translate(1253,1345)" d="m0 0 2 1-1 25-1 14h-1v-21h-5l-3-5 2-7 6-4z" fill="#D5E4EE"/>
<path transform="translate(282,1188)" d="m0 0 9 1 10 5 4 8-1 4-5-2-3-3v-2h-2v-2l-10-2v-5z" fill="#DCEAF2"/>
<path transform="translate(948,1445)" d="m0 0 6 1 2 2-5 1v15l4 27 8 32v6l-2-1-6-25-5-26-2-21z" fill="#085AC5"/>
<path transform="translate(1112,1346)" d="m0 0h1l2 34 1 7-6 1-5-2v-7h2l1 5 4-1-2-4-1-6v-11l2-4z" fill="#CEDEEB"/>
<path transform="translate(449,570)" d="m0 0h16l2 1v2l-5-1-16 1-24 4-4 1 1 10 5 25-1 4-5-19-3-22 18-4z" fill="#A7BFDB"/>
<path transform="translate(1e3 1335)" d="m0 0h2l1 6 5 1 3 3v2h-6v15h-2l-1-2-3-1v-23z" fill="#054FAF"/>
<path transform="translate(949,1770)" d="m0 0 4 2 10 13 9 10 9 6 9 3 5 1h16l13-3 3 1-9 3-6 1h-18l-13-3-8-5-9-8-13-17z" fill="#0755BC"/>
<path transform="translate(798,1828)" d="m0 0 4 5 8 11 11 13 5 3h2l8-14 7-15 1 4-15 30-4-2-13-12-12-16-2-3z" fill="#0B59C0"/>
<path transform="translate(1550,1475)" d="m0 0h1v8l20 3 11 1h17l12-3 12-9-2 4-7 6-12 4h-30l-20-3-4-2 1-6z" fill="#0857BE"/>
<path transform="translate(977,1657)" d="m0 0 3 4 7 9 15 11 19 11 24 13 2 3-3 4-1-5-29-16-19-12-11-9-5-6-2-4z" fill="#0757BF"/>
<path transform="translate(1187,1379)" d="m0 0h1l1 8-4 53-3 5-9 4-4-1 12-5 2-12 3-35z" fill="#84A9D6"/>
<path transform="translate(1173,1344)" d="m0 0 3 2v10h-13l-1-5h2l2-5 6-1z" fill="#FCFCFC"/>
<path transform="translate(1505,1413)" d="m0 0v3l-10 12-9 11-19 19-16 14-5 2 5-5 12-11 10-9 9-9 7-8 14-17z" fill="#115CBD"/>
<path transform="translate(997,1336)" d="m0 0h3v2h2l-1 13-1 3h-2v-2l-3-1v-5l-3 3h-2l1-5z" fill="#F2F5F8"/>
<path transform="translate(1656,1353)" d="m0 0 2 1-3 5-4 31-3 11-5 8-9 10-4 4-1 3-5-1 2-3 5-3 8-8 7-11 3-11 4-30h-2v-2z" fill="#0759C4"/>
<path transform="translate(1546,463)" d="m0 0h3l-1 3-32 16-25 10-8 3-3-1 30-12 17-8z" fill="#0756BE"/>
<path transform="translate(1358,427)" d="m0 0 2 1 5 12 16 30 3 9v11l-3 5-1-2 2-4v-8l-5-14-9-16-8-14-2-5z" fill="#0756BD"/>
<path transform="translate(404,666)" d="m0 0h8l2 1v2l-39 5h-7l2-2z" fill="#A2BCDA"/>
<path transform="translate(763,1785)" d="m0 0 5 2 3 3v2h2l7 8 10 14 8 13-1 3-7-10-9-14-12-14-6-5z" fill="#0652B6"/>
<path transform="translate(350,744)" d="m0 0h6l6 4-1 5-5 1-10-2 2-6z" fill="#DAE9F1"/>
<path transform="translate(346,758)" d="m0 0 2 3v16l1 2h-2v12l2 16h-2l-3-11v-24l1-13z" fill="#CEDEEB"/>
<path transform="translate(1385,1461)" d="m0 0 9 1 45 12 5 1v1h-8l-16-4-35-10z" fill="#0653B8"/>
<path transform="translate(1211,830)" d="m0 0 5 1-2 10-8 5-2-4 6-11z" fill="#085AC5"/>
<path transform="translate(289,1203)" d="m0 0 4 4 11 18 8 15-1 2-12-19-9-13z" fill="#0759C4"/>
<path transform="translate(1648,489)" d="m0 0 4 2 5 10 3 15 2 16-2 2-6-33-3-9-3-1z" fill="#0758C2"/>
<path transform="translate(524,1492)" d="m0 0 5 1 15 6 20 3 8 4v2l-4-1-6-2-16-3-14-5-8-4z" fill="#0B5CC4"/>
<path transform="translate(1611,701)" d="m0 0 2 1-4 6-5 12-7 10-22 22v-3l20-20 7-10 7-16z" fill="#125EC2"/>
<path transform="translate(1544,901)" d="m0 0 6 1 36 2 9 1-4 2-38-2-9-3z" fill="#0758C2"/>
<path transform="translate(1696,1271)" d="m0 0 5 5 1 4h-2l-4 20-3 32h-1v-16l3-25 2-8v-9z" fill="#095AC2"/>
<path transform="translate(291,1123)" d="m0 0 13 1 2 1v5h-11l-4-4z" fill="#DDEAF2"/>
<path transform="translate(420,594)" d="m0 0 2 4 4 15 4 10 2 9-5-5-6-22z" fill="#DCEAF2"/>
<path transform="translate(1689,574)" d="m0 0 4 5 13 21 4 6v5l-3-3-6-11-13-21z" fill="#0653B8"/>
<path transform="translate(1664,685)" d="m0 0v3l-5 6-10 5-35 2 1-2 10-1 22-1 10-5z" fill="#1C66C7"/>
<path transform="translate(482,1513)" d="m0 0 7 6 16 16 8 7 4 3v2h-3l-15-15-5-4v-2h-2l-7-8-3-3z" fill="#9DB9D9"/>
<path transform="translate(691,1707)" d="m0 0 5 5 9 16 9 10 2 5-7-6-9-12-8-14z" fill="#0756BE"/>
<path transform="translate(969,1588)" d="m0 0 4 2 8 8 7 6 9 11 6 7-1 3-8-10-11-12-14-14z" fill="#0756BD"/>
<path transform="translate(1253,1345)" d="m0 0 2 1v9l-3 4-4-1-3-1 1-5 6-4z" fill="#AEC4DC"/>
<path transform="translate(995,1090)" d="m0 0h1l-1 12 1 1-1 11-4 4-2 3 1-9z" fill="#0759C4"/>
<path transform="translate(312,1242)" d="m0 0 1 2h2l9 19 5 15v5l-2-1-8-24-5-10v-2h-2z" fill="#9FBADA"/>
<path transform="translate(188,994)" d="m0 0h3l4 10 2-2 5 12-1 3-2-3v5l-2-2-7-19z" fill="#7DA9DD"/>
<path transform="translate(1042,1447)" d="m0 0 5 1 2 4-5-2-6 1-9 3-17 3-6 3-2-1 9-5 17-3z" fill="#0759C3"/>
<path transform="translate(1694,1331)" d="m0 0h2l-2 5-4 4-26 11-6 2 3-3 26-12 5-5z" fill="#0655BB"/>
<path transform="translate(1235,972)" d="m0 0 2 1 2 8 1 11-1 4h-2l-4-15z" fill="#0653B7"/>
<path transform="translate(1297,1397)" d="m0 0 2 3 7 12 12 12 3 4-1 3-8-10-11-11-4-6z" fill="#0759C4"/>
<path transform="translate(1542,1425)" d="m0 0 3 3 11 20 6 7-1 4-2 3-2-1 1-5-9-16-7-13z" fill="#0956BA"/>
<path transform="translate(1637,1438)" d="m0 0 5 5 4 3-1 4-8 7-10 14v-3l8-12 6-7-1-5-3-4z" fill="#0756BD"/>
<path transform="translate(1399,275)" d="m0 0h1v10l-3 12-7 12-2 1 2-6 4-8z" fill="#085AC5"/>
<path transform="translate(1562,824)" d="m0 0 5 4v2h2l2 5-3 11-4 11h-2l5-15v-7l-5-8z" fill="#0D5CC3"/>
<path transform="translate(483,792)" d="m0 0 16 1 3 1-1 4-9-1-9-4z" fill="#7BA3D5"/>
<path transform="translate(278,1187)" d="m0 0 3 1 8 13 2 7-3-1-10-17z" fill="#0654BA"/>
<path transform="translate(672,398)" d="m0 0 3 1-5 6-8 5-4 3-4-1 9-7z" fill="#AEC4DC"/>
<path transform="translate(671,1682)" d="m0 0 6 5 11 14 4 6h-3l-9-12-10-11z" fill="#0758C2"/>
<path transform="translate(1133,1332)" d="m0 0 4 5 3 1-1 3-9 1-1-5 1-3z" fill="#F7F9FA"/>
<path transform="translate(1647,1399)" d="m0 0 1 2-5 8-9 10-4 4-1 3-5-1 2-3 5-3 8-8z" fill="#0756BE"/>
<path transform="translate(1079,706)" d="m0 0h1v6l-1 2h2v8l-3 1-3 11-1-4z" fill="#085AC5"/>
<path transform="translate(234,1093)" d="m0 0 4 2 5 11 7 15-1 2-11-20-4-8z" fill="#085AC5"/>
<path transform="translate(543,1569)" d="m0 0 4 2 19 14 4 3v2l-4-2-12-9-10-8z" fill="#0759C4"/>
<path transform="translate(1072,1315)" d="m0 0 3 2-2 4h-2v2h-2l-2 5-3 3h-2l1-5 4-2v-3h3l-1-3z" fill="#054DAB"/>
<path transform="translate(948,1445)" d="m0 0 6 1 2 2-5 1v23l-2-4-1-12z" fill="#0758C2"/>
<path transform="translate(1616,478)" d="m0 0 11 1 15 5 3 3-10-3-19-4z" fill="#085AC5"/>
<path transform="translate(716,1742)" d="m0 0 7 6 10 9 5 5h-3l-10-9-9-9z" fill="#0651B4"/>
<path transform="translate(481,1482)" d="m0 0h5l-2 4-11 4h-5l-1-3 9-1z" fill="#A0BBDA"/>
<path transform="translate(489,1474)" d="m0 0 6 2 9 5-3 1-8-4-6 5v-2h-8v-1l9-2z" fill="#B9D0E6"/>
<path transform="translate(1466,974)" d="m0 0 4 1-1 11-5-5v-6z" fill="#085AC5"/>
<path transform="translate(543,513)" d="m0 0 1 3-1 2-3-1zm-4 4m-1 1 2 2h-3zm-2 2m-1 1 3 2-7 8h-2l2-4 3-5z" fill="#C0D3E4"/>
<path transform="translate(763,1785)" d="m0 0 5 2 3 3v2h2l7 8v3l-6-5-7-8-4-3z" fill="#0651B4"/>
<path transform="translate(1648,489)" d="m0 0 4 2 5 10 1 3v8l-2-1-3-13-2-6-3-1z" fill="#1964C4"/>
<path transform="translate(1297,1315)" d="m0 0h3l-1 9-2 7-2-1v-9z" fill="#054DAC"/>
<path transform="translate(308,1227)" d="m0 0 3 3 3 5 2 9h-3l-3-6z" fill="#DEEAF2"/>
<path transform="translate(1375,501)" d="m0 0 1 2-9 13-6 2v-2l7-6z" fill="#0652B5"/>
<path transform="translate(480,1486)" d="m0 0 4 1-1 4h-6l-6 1-2-2z" fill="#FDFDFD"/>
<path transform="translate(1015,998)" d="m0 0h1v9h1v6l-3 1-1 3h-1l1-10z" fill="#085AC5"/>
<path transform="translate(503,789)" d="m0 0 3 1-1 4-3 5-3-1 2-1 1-3-11-1v-1h10v-2z" fill="#DCEAF2"/>
<path transform="translate(527,532)" d="m0 0 1 2-4 6-4 5h-2v2l-3-1 9-11z" fill="#AEC4DC"/>
<path transform="translate(1272,1357)" d="m0 0 5 2 2 3h-3l-2-1v12h-2z" fill="#CCDDEA"/>
<path transform="translate(1e3 1044)" d="m0 0h1l-1 12h1v8l-3-1-2 3 1-8z" fill="#085AC5"/>
<path transform="translate(1664,685)" d="m0 0v3l-5 6-10 5-4-1 12-6z" fill="#0A57BB"/>
<path transform="translate(933,1755)" d="m0 0 5 1 12 12v2l-4-2-6-7-7-5z" fill="#0652B5"/>
<path transform="translate(600,1611)" d="m0 0 9 6 7 6v2l-4-2-11-9z" fill="#0757BF"/>
<path transform="translate(1522,1387)" d="m0 0 3 3 7 15-1 2-8-14-2-1z" fill="#0654B9"/>
<path transform="translate(1e3 1360)" d="m0 0 3 2v2l-4 4-5-1 1-5h5z" fill="#AEC4DC"/>
<path transform="translate(1029,1697)" d="m0 0 16 8 2 3-3 4-1-5-14-8z" fill="#135EBE"/>
<path transform="translate(270,1170)" d="m0 0h2l7 15-2 4-7-17z" fill="#0759C3"/>
<path transform="translate(691,1707)" d="m0 0 5 5 6 11v2h-2l-8-14z" fill="#0653B8"/>
<path transform="translate(1326,1442)" d="m0 0 2 2 1 5 5 1v1l-14 1-1-2 8-1z" fill="#0654B9"/>
<path transform="translate(1294,1375)" d="m0 0 5 4 3 4v2h3l-1 3-4-1-6-9z" fill="#085AC5"/>
<path transform="translate(975,1373)" d="m0 0 5 3 5 6 2 1v2l-5-2-7-7z" fill="#0550B1"/>
<path transform="translate(342,1327)" d="m0 0 4 1 2 4v7l-4-4-2-5z" fill="#085AC5"/>
<path transform="translate(1254,1006)" d="m0 0 4 2-3 3-3 2h-4v-4z" fill="#054EAD"/>
<path transform="translate(832,1855)" d="m0 0 1 2-4 8-4-2-5-5 8 2z" fill="#0757C0"/>
<path transform="translate(1691,1254)" d="m0 0 2 1-4 4 1 2 3 4-1 2-8-6 5-5z" fill="#0C5CC5"/>
<path transform="translate(1283,1097)" d="m0 0h1v13l-4 7-1 2-2-1 4-12z" fill="#085AC5"/>
<path transform="translate(842,1329)" d="m0 0 6 1 5 4 1 2v7l-2-4-5-6z" fill="#E5EFF5"/>
<path transform="translate(453,1476)" d="m0 0 4 2 5 6 5 1-2 1-1 4-11-13z" fill="#DEEBF2"/>
<path transform="translate(547,1520)" d="m0 0 3 1-16 7-3-1 6-2v-2z" fill="#A4BDDA"/>
<path transform="translate(1328,815)" d="m0 0 2 1-1 5-1 1h-5v-2l-2-1z" fill="#085AC5"/>
<path transform="translate(1017,1757)" d="m0 0h1v13l2 6-3-3-2-4v-6z" fill="#5D93D5"/>
<path transform="translate(958,1511)" d="m0 0h2l3 12v6l-2-1-3-14z" fill="#0759C3"/>
<path transform="translate(1138,1367)" d="m0 0h5l-1 3-9 2v-3z" fill="#F3F7F9"/>
<path transform="translate(753,1776)" d="m0 0 4 1 7 7-2 2-9-8z" fill="#0653B8"/>
<path transform="translate(1708,982)" d="m0 0h2l6 9 1 5h-2l-5-9z" fill="#0653B8"/>
<path transform="translate(977,1657)" d="m0 0 3 4 7 9 2 3-4-2-6-7-2-4z" fill="#085AC5"/>
<path transform="translate(348,799)" d="m0 0 2 4 2 6-1 4-4-4v-2h2l-1-2z" fill="#DCEAF2"/>
<path transform="translate(688,387)" d="m0 0 2 1-4 5-5 2v-3z" fill="#AEC4DC"/>
<path transform="translate(1014,1335)" d="m0 0 4 3-1 6-4-1z" fill="#AEC4DC"/>
<path transform="translate(1351,781)" d="m0 0h1v13l-3 6h-1l1-10z" fill="#085AC5"/>
<path transform="translate(949,1770)" d="m0 0 4 2 7 9-2 2-9-12z" fill="#0755BC"/>
<path transform="translate(1689,574)" d="m0 0 4 5 4 7h-3l-6-11z" fill="#0757C0"/>
<path transform="translate(1239,1320)" d="m0 0 7 6 2 3-1 4-7-10z" fill="#0551B3"/>
<path transform="translate(1080,1313)" d="m0 0h3l3 5v2l-5-1z" fill="#054DAB"/>
<path transform="translate(1047,853)" d="m0 0h1v12h-2l-1 5-1-4z" fill="#085AC5"/>
</svg>
