<?xml version="1.0" encoding="UTF-8"?>
<svg version="1.1" viewBox="0 0 2048 2048" width="192" height="192" xmlns="http://www.w3.org/2000/svg">
<path transform="translate(0)" d="m0 0h2048v2048h-2048z" fill="#FCFCFC"/>
<path transform="translate(1013,600)" d="m0 0h492l9 2 11 7 11 11 8 12 2 5-1 10-6 26-16 73-21 96-10 44-2 7-9 6-20 10-22 12-21 10-4 3 2 4 19 12 20 12 16 10 2 2-2 12-10 42-16 74-18 84-6 20-6 9-11 11-13 9-16 8-15 3h-391l-8-1 1-9 10-40 14-65 20-92 16-73 11-51 16-71 21-95 9-43 2-8-1-9-6-10-10-12-12-16-10-13-9-11-20-25z" fill="#044CAD"/>
<path transform="translate(892,601)" d="m0 0h94l5 5 9 12 1 4h2l10 14 9 11 9 12 12 15 13 19 3 5v14l-14 56-8 27-3 4-6-2-32-20-18-10-15-8-2-4 7-22 1-5-8-1h-104l-3 13-8 39-14 58-3 11-1 1-32 1h-84l2 6 15 14 8 8 9 11 14 15 7 8 24 26 10 10 5 6-1 12-5 22-12 55-9 40-8 30v6l65 2h47l3-21 7-30 10-45 4-17v-6l-3-3-4-1h-8l-5 1-12-10-7-8-10-10-7-8-15-16-9-10-15-16-45-45 1-2 34-1h61l89 1 32 1 9 3 11 7 9 7 2 4v13l-18 84-10 45-9 43-18 81-10 42-10 39-2 2-15 1h-254l-41-1-9-2-10-6-9-8-7-10-4-9v-11l5-26 13-55 11-50 8-36 24-111 9-42 12-54 9-42 19-84 9-43 9-42 2-10 2-1 53-1z" fill="#FFDC69"/>
<path transform="translate(1336,726)" d="m0 0 28 1 1 3-5 16-12 53-4 6-7 6-18 10-14 8-24 14-26 15-28 16-16 8-4 3v6l10 30 14 48 11 43 1 2 6-1 28-13 21-11 9-1-1 10-6 25-14 65-6 25-3 6-2 2h-120l-3-1 1-10 10-42 16-72 10-44 1-5-10-31-5-19-7-22 2-6 7-6 15-9 21-13 2-9 5-25 9-40 8-35 3-5z" fill="#FDFDFD"/>
<path transform="translate(1217,1310)" d="m0 0h8l8 3 12 12 6 7v-7l7-9 4-3h7l7 4 5 11 3 5v2l6-1 2 1 2-15 3-5 5-2h8l5 4 1 2v17l1 24-1 17-3 6-3 3-9 1h-3l-1 6h-1l-3-12-10-15-7-6-3-1 1 26-3 3-7 1-9-2-2-1v-36l-3 5-3-1-8 14-10 11-10 5-4 1h-15l-12-5-5-8-4-6-4-1-12 12-10 7-11 4-8 1h-11l-8-3-1-4-2-35 1-18 6-10 9-5 4-1h16l10 4 5 4 5 10 1 9-6 3-3 8 1 4 1 1h14l1-12 8-16 9-10 7-5z" fill="#044CAD"/>
<path transform="translate(999,1312)" d="m0 0h20l6 4 3 4-1 18 5 6 2 6v9l-4 10-6 9-7 6-9 4-11 1-10-3-6-4-7-7-4-8-1-3v-17l2-9 6-10 4-5 13-9z" fill="#044CAD"/>
<path transform="translate(835,1312)" d="m0 0h14l9 3 8 7 6 10 2 9-1 13-4 10-11 12-14 7-4 1h-11l-10-5-8-8-3-8v-28l6-9 8-8 6-4z" fill="#FFE53B"/>
<path transform="translate(714,1313)" d="m0 0h8l8 2 5 3v20l5 14-1 9-4 11-4 6-7 6-9 3h-16l-11-7-6-7-4-10-1-8v-10l2-9 6-9 11-8 12-5z" fill="#FFE639"/>
<path transform="translate(1072,1311)" d="m0 0h8l5 3 3 6 6 20 7 26 6 16v3h-16l-12-5h-9l-10 8-2 1h-7l-7-3 1-13 3-15 5-17 3-13 5-10 6-5z" fill="#044CAD"/>
<path transform="translate(772,1314)" d="m0 0h23l3 1 1 4-5 17-10-5-3-1h-11v7l3 7h7l13-4 2 1 1 15 4 14-2 10-5 5-12 2-13 1-10-1-6-3-1-1v-58l3-5 8-4z" fill="#FFE637"/>
<path transform="translate(732,1317)" d="m0 0 3 1v20l5 14-1 9h-1l-1-11-4-8-7-1-2 14v7l-3 7-3 2-11 1-7-3-5-7-1-3v-8l4-11 7-9 9-3h8l10 5v-10l1-4z" fill="#FFDC68"/>
<path transform="translate(769,1330)" d="m0 0 1 2 1 8 2 4h7l13-4 2 1 1 15 4 14-2 10-1-4v-4l-17 3h-8l-3-3-3-9v-15l4-4-3-10z" fill="#FFDC69"/>
<path transform="translate(840,1328)" d="m0 0 6 1 7 6 2 5v8l-3 8-7 8-7 3h-6l-6-5-2-6v-12l3-6 7-7z" fill="#FDFDFD"/>
<path transform="translate(1213,1331)" d="m0 0 9 3 3 3 1 2v14l-4 4-10 5-9-1-3-4-1-8 3-9 4-6z" fill="#FDFDFD"/>
<path transform="translate(641,1650)" d="m0 0 7 6 10 11 7 8 12 14 9 11 9 12 10 15 8 10 9 10 10 10 11 9 11 10 8 7 10 9 10 11 12 17 10 16 9 12 9 10h-3l-8-8-14-20-14-21-9-11-17-17-11-9-10-9-8-7-18-18-11-15-7-11-10-13-22-26-11-12-7-8z" fill="#044CAD"/>
<path transform="translate(1e3 1330)" d="m0 0 7 1 5 5v6l-4 1-6-3-1-5-2 1v9l-1 15-1 6-5 1-5-6-1-3v-11l9-12z" fill="#FDFDFD"/>
<path transform="translate(261,1148)" d="m0 0 4 5 11 24 7 12 8 13 20 34 9 21 9 25-1 4-9-25-10-22-12-20-8-13-11-18-9-20-8-17z" fill="#044CAD"/>
<path transform="translate(772,1314)" d="m0 0h23l3 1 1 4-5 17-10-5-3-1h-11l1-2 5-1-1-5 2-2 6 1-2 6 12 5 4-16h-21l-16 3-5 4-1 2v58l2 2-4-1-1-1v-58l3-5 8-4z" fill="#FFDC68"/>
<path transform="translate(1132,1356)" d="m0 0 15 1 4 3-1 4-4 4-14 6-4-4-1-7 4-6z" fill="#FDFDFD"/>
<path transform="translate(1548,462)" d="m0 0 18 4 40 9 26 6 8 3-3 1-25-6-48-11-12-3-6 1-32 16-12 5-3-1 26-12z" fill="#044CAD"/>
<path transform="translate(1648,491)" d="m0 0 4 4 5 12 7 25 8 16 16 24 9 15 5 9-1 2-12-20-11-16-10-15-6-12-8-29-5-12z" fill="#044CAD"/>
<path transform="translate(1327,1447)" d="m0 0 9 3 35 7 64 16 6 2-3 1-19-4-29-8-51-11-19-2 4-2z" fill="#044CAD"/>
<path transform="translate(1135,1329)" d="m0 0h8l5 5-1 5-5 3-8 1-4-1v-8z" fill="#FDFDFD"/>
<path transform="translate(189,992)" d="m0 0 4 2 9 25 4 11 11 28 9 18-1 2-9-16-12-29-12-31-4-9z" fill="#044CAD"/>
<path transform="translate(234,1092)" d="m0 0 5 4 15 5 43 12 13 3-1 2-17-4-15-4-33-9-3-2 4 10 7 17-1 3-10-23-5-10z" fill="#044CAD"/>
<path transform="translate(785,1344)" d="m0 0h3v2l5 1v7l-12 2h-6l-1-1v-8l1-1z" fill="#FFE736"/>
<path transform="translate(329,1286)" d="m0 0 2 3 9 26 8 15 6 10 7 14 5 8-1 2-10-15-12-20-8-21-6-18z" fill="#044CAD"/>
<path transform="translate(930,1754)" d="m0 0 5 1 13 12 14 17 9 10 11 8 4 3-5-1-9-6-12-12-10-13-3-3v-2h-2l-4-5-2-1v-2l-4-2-5-1-13 9-6 2 4-4 11-7z" fill="#044CAD"/>
<path transform="translate(822,1318)" d="m0 0 2 1-10 10-3 5v26l2 9 1 4-4-4-2-6v-28l6-9z" fill="#FFDC69"/>
<path transform="translate(1551,1477)" d="m0 0 2 3v3l15 3 11 1h15l12-2 10-5 2 1-8 5-13 3h-25l-18-3-3-2z" fill="#044CAD"/>
<path transform="translate(440,1465)" d="m0 0 7 6 19 19 9 11 5 5-1 2-9-9-7-8-20-20-3-4z" fill="#044CAD"/>
<path transform="translate(1668,959)" d="m0 0 7 1 16 7 9 6 7 6 9 13 1 6-3-4-6-10-10-10-16-9-14-5z" fill="#044CAD"/>
<path transform="translate(430,655)" d="m0 0h1v26l-4 17-4 9-2 3-3-1 7-14 3-9 1-7z" fill="#044CAD"/>
<path transform="translate(597,1610)" d="m0 0 5 2 13 11 8 7 15 15-1 2-16-16-11-9-9-8z" fill="#044CAD"/>
<path transform="translate(970,1589)" d="m0 0 4 2 16 16 12 16-1 2-8-10-9-11-14-14z" fill="#044CAD"/>
<path transform="translate(234,1092)" d="m0 0 7 5 7 20 4 9-1 3-10-23-5-10z" fill="#074EAE"/>
<path transform="translate(1561,820)" d="m0 0 3 4 7 13-1 5-2 2-2-10-5-11z" fill="#044CAD"/>
<path transform="translate(456,572)" d="m0 0h7l15 4 10 4-3 1-10-3-8-3-11-2z" fill="#044CAD"/>
<path transform="translate(1375,503)" d="m0 0 1 2-5 8-7 6-3-1 9-8z" fill="#044CAD"/>
<path transform="translate(334,1222)" d="m0 0 2 3 4 18h-11v-1l7-1v-7l-2-8z" fill="#044CAD"/>
<path transform="translate(390,796)" d="m0 0 8 2-4 4-3 7h-2l2-11z" fill="#044CAD"/>
<path transform="translate(947,1445)" d="m0 0 6 1-3 1v19h-1z" fill="#044CAD"/>
<path transform="translate(1693,1332)" d="m0 0 2 1-3 5-5 3-6 1 4-3 6-4z" fill="#044CAD"/>
<path transform="translate(830,1856)" d="m0 0 1 2-3 7-6-5 2-1 3 1z" fill="#044CAD"/>
<path transform="translate(691,1322)" d="m0 0 2 1-11 11v-3l4-5z" fill="#FFDE5B"/>
</svg>
